<?xml version="1.0" encoding="UTF-8" standalone="no"?>
<!-- Created with Inkscape (http://www.inkscape.org/) -->

<svg
   width="144mm"
   height="144mm"
   viewBox="0 0 144 144"
   version="1.1"
   id="svg1"
   inkscape:version="1.4.2 (f4327f4, 2025-05-13)"
   sodipodi:docname="drawing.svg"
   xmlns:inkscape="http://www.inkscape.org/namespaces/inkscape"
   xmlns:sodipodi="http://sodipodi.sourceforge.net/DTD/sodipodi-0.dtd"
   xmlns="http://www.w3.org/2000/svg"
   xmlns:svg="http://www.w3.org/2000/svg">
  <sodipodi:namedview
     id="namedview1"
     pagecolor="#ffffff"
     bordercolor="#000000"
     borderopacity="0.25"
     inkscape:showpageshadow="2"
     inkscape:pageopacity="0.0"
     inkscape:pagecheckerboard="0"
     inkscape:deskcolor="#d1d1d1"
     inkscape:document-units="mm"
     inkscape:zoom="0.90509668"
     inkscape:cx="202.74077"
     inkscape:cy="400.5097"
     inkscape:window-width="1920"
     inkscape:window-height="1009"
     inkscape:window-x="-8"
     inkscape:window-y="-8"
     inkscape:window-maximized="1"
     inkscape:current-layer="layer1" />
  <defs
     id="defs1">
    <rect
       x="151.36505"
       y="162.41359"
       width="366.81164"
       height="392.22329"
       id="rect6" />
    <rect
       x="49.718446"
       y="130.37281"
       width="285.05242"
       height="292.7864"
       id="rect5" />
    <rect
       x="239.24831"
       y="228.12048"
       width="280.97766"
       height="491.01544"
       id="rect4" />
    <rect
       x="240.6393"
       y="247.59418"
       width="307.40625"
       height="634.28619"
       id="rect3" />
  </defs>
  <g
     inkscape:label="Layer 1"
     inkscape:groupmode="layer"
     id="layer1">
    <rect
       style="fill:#333333;stroke-width:0.938973"
       id="rect7"
       width="139.8678"
       height="139.8678"
       x="2.0661004"
       y="2.0661004"
       ry="8.9910431" />
    <path
       style="font-size:213.333px;font-family:SimSun-ExtB;-inkscape-font-specification:SimSun-ExtB;white-space:pre;fill:#e6e6e6;stroke-width:2.27077"
       d="m 68.530777,47.715439 v 66.230631 c 0,3.36409 0.420509,5.46666 1.261533,6.30768 0.420516,1.26153 1.892307,1.8923 4.41538,1.8923 h 32.07176 v 3.78461 H 37.623147 v -3.78461 h 15.138432 c 1.682049,0 3.153839,-0.42051 4.415372,-1.26153 0.841025,-0.84103 1.261541,-2.10256 1.261541,-3.78461 V 47.715439 c 0,-9.251269 2.943581,-16.610223 8.830752,-22.076878 5.887164,-5.046146 12.405101,-7.56922 19.553805,-7.56922 6.307679,0 11.143567,1.261533 14.507661,3.784607 3.36409,2.523073 5.04614,5.466662 5.04614,8.830752 0,2.523073 -0.63076,4.41538 -1.8923,5.676913 -1.68205,1.26154 -3.36409,1.892307 -5.046143,1.892307 -2.102557,0 -3.784606,-0.841025 -5.046146,-2.523073 -1.261533,-1.261541 -1.892299,-2.94359 -1.892299,-5.046147 0,-0.841024 0.210258,-1.682041 0.630766,-2.523066 0,-0.420516 0.420508,-1.051282 1.261533,-1.892306 -0.841025,-1.261541 -2.102557,-2.312816 -3.784606,-3.15384 -1.682049,-0.420508 -2.943582,-0.630766 -3.784606,-0.630766 -5.466655,0 -9.882035,1.682048 -13.246125,5.046138 -3.364098,3.784607 -5.046147,10.512802 -5.046147,20.184579 z"
       id="text5"
       aria-label="J"
       sodipodi:nodetypes="sscsccccscsscssscscscccscs" />
  </g>
</svg>
